<?xml version="1.0" encoding="utf-8"?>
<!-- Generator: Adobe Illustrator 21.0.0, SVG Export Plug-In . SVG Version: 6.00 Build 0)  -->
<svg version="1.1" xmlns="http://www.w3.org/2000/svg" xmlns:xlink="http://www.w3.org/1999/xlink" x="0px" y="0px"
	 viewBox="0 0 100 100" enable-background="new 0 0 100 100" xml:space="preserve">
<g id="BACKGROUND">
</g>
<g id="OBJECTS">
	<g>
		<g>
			<defs>
				<circle id="SVGID_1_" cx="50" cy="50" r="49.996"/>
			</defs>
			<clipPath id="SVGID_2_">
				<use xlink:href="#SVGID_1_"  overflow="visible"/>
			</clipPath>
			<g clip-path="url(#SVGID_2_)">
				<g>
					<g>
						<path fill="#C4877A" d="M35.161,70.589c1.846-0.284,5.966-2.31,7.101-3.873c1.278-1.562,2.557-14.593,2.557-14.593
							c2.983,0.568,8.522,0.852,11.364-0.426c0.284,3.977,0,7.67,0.852,11.505c0.284,1.989,0.568,3.409,2.131,4.546
							c1.421,1.136,3.693,1.704,5.256,2.557c-1.989,3.124-3.693,6.676-6.392,9.09c-2.415,2.273-5.256,4.262-7.244,6.676
							L35.161,70.589z"/>
					</g>
					<g>
						<path fill="#A3675D" d="M44.409,54.276c0.109,3.18,2.521,9.32,5.701,10.526c3.508,1.206,6.14-8.99,6.14-11.403l0,0
							L44.409,54.276z"/>
					</g>
				</g>
				<g>
					<g>
						<path fill="#A3675D" d="M35.692,36.432c-2.302-0.905-5.509,0.083-5.921,2.878c-0.576,3.783,2.302,8.223,6.333,7.729
							c1.398-0.164,2.384-0.905,3.618-1.48L35.692,36.432z"/>
					</g>
					<g>
						<path fill="#A3675D" d="M62.673,36.432c2.302-0.905,5.509,0.083,5.92,2.878c0.576,3.783-2.302,8.223-6.332,7.729
							c-1.398-0.164-2.385-0.905-3.618-1.48L62.673,36.432z"/>
					</g>
				</g>
				<g>
					<g>
						<g>
							<path fill="#C4877A" d="M62.169,25.88c-2.741-0.438-1.754-5.263-2.083-7.456c-3.07,1.207-19.077,1.536-21.818,0.22
								c0,1.973,0.329,4.495-0.549,6.25c-0.438,0.986-1.973,2.083-1.973,2.083s0.22,2.083,0.329,2.851
								c0.279,1.952,0.788,5.397-0.534,7.203c1.012,5.272,2.266,10.234,2.539,11.655c0.658,3.07,1.535,3.508,3.837,5.262
								c2.406,1.834,6.249,4.277,8.991,4.497c0,0,7.346-4.497,8.442-5.812c1.319-1.412,3.441-10.819,4.295-16.368
								C61.2,33.535,62.35,30.115,62.169,25.88z"/>
						</g>
						<g>
							<path fill="#38231E" d="M64.852,13.913c3.959-3.341-2.103-5.939-4.083-2.722c1.361-1.98-0.866-3.093-2.475-2.722
								c1.485-3.217-4.826-4.702-5.073-0.124C52.85,6.86,50.87,6.736,50.127,7.726c0.495-2.846-3.341-2.846-3.959-0.742
								c0.248-3.217-5.32-1.732-3.836,1.485c-0.99-0.99-2.846-0.248-3.217,1.114c-1.114-2.475-4.578,0.124-2.969,2.475
								c-2.722,0-4.455,2.846-1.856,4.578c-3.341,0.866-1.313,3.712-0.819,6.682c0.073,0.579,0.142,1.117,0.189,1.66
								c0.92,4.307,1.027,7.608,1.882,12.053c1.322-1.806,0.813-5.251,0.534-7.203c-0.109-0.769-0.329-2.851-0.329-2.851
								s1.535-1.097,1.973-2.083c0.878-1.755,0.549-4.277,0.549-6.25c2.741,1.316,18.748,0.987,21.818-0.22
								c0.329,2.193-0.658,7.018,2.083,7.456c0.181,4.236-0.969,7.656,1.476,10.384c0.141-0.916,0.249-1.729,0.31-2.38
								c0.296-2.899,0.814-6.756,0.54-10.313c0.006-1.556-0.106-2.858,0.233-4.213c0.495-1.609,1.98-1.732,2.351-3.094
								C67.45,14.779,66.336,13.418,64.852,13.913z"/>
						</g>
					</g>
					<g>
						<path fill="#FFFFFF" d="M45.477,49.095c0.822,1.48,1.644,2.631,3.536,2.878c2.466,0.412,4.605-0.74,5.344-3.207L45.477,49.095
							z"/>
						<g>
							<ellipse cx="41.814" cy="35.692" rx="1.11" ry="2.22"/>
							<ellipse cx="56.945" cy="35.692" rx="1.11" ry="2.22"/>
						</g>
						<g>
							<path fill="#A3675D" d="M49.589,33.718c0.347,0.803,0.416,1.75,0.221,2.653c-0.2,0.902-0.619,1.734-1.052,2.479
								c-0.417,0.761-0.865,1.458-1.15,2.187c-0.145,0.362-0.268,0.723-0.351,1.082c-0.062,0.33-0.061,0.653,0.016,0.925
								c0.194,1.105,2.077,1.666,3.406,1.395c0.65-0.144,1.19-0.641,1.493-1.373c0.308-0.71,0.445-1.598,0.458-2.44
								c0.313,0.827,0.397,1.715,0.247,2.652c-0.093,0.461-0.274,0.929-0.583,1.344c-0.306,0.417-0.762,0.74-1.248,0.928
								c-1.005,0.365-1.955,0.306-2.938,0.056c-0.486-0.142-0.966-0.385-1.386-0.75c-0.419-0.363-0.755-0.877-0.899-1.433
								c-0.138-0.56-0.107-1.115,0.005-1.624c0.127-0.473,0.278-0.928,0.49-1.346c0.425-0.836,0.942-1.569,1.465-2.241
								c0.511-0.683,1.001-1.33,1.33-2.066C49.462,35.421,49.61,34.594,49.589,33.718z"/>
						</g>
						<g>
							<g>
								<path fill="#38231E" d="M41.064,27.908c-0.713,0.439-1.973,0.384-1.206-0.877c0.384-0.657,1.7-1.26,2.466-1.206
									c0.713,0.055,1.207,0.931,0.385,1.26L41.064,27.908z"/>
							</g>
							<g>
								<path fill="#38231E" d="M56.962,26.482c-1.426-0.931-0.274-1.863,1.042-1.315c0.822,0.274,1.535,0.822,1.808,1.7
									c0.274,0.822-0.109,1.424-1.042,0.877L56.962,26.482z"/>
							</g>
						</g>
					</g>
				</g>
				<g>
					<g>
						<path fill="#C4877A" d="M20.727,94.733c2.795-0.493,7.729,0.329,11.019,0.165c0.493,3.454,0.328,10.854,0.328,10.854
							c-3.288,0.658-8.222,0.329-11.676,0.165C20.198,105.839,20.727,94.733,20.727,94.733z"/>
					</g>
					<g>
						<path fill="#C4877A" d="M80.178,94.733c-2.795-0.493-7.729,0.329-11.019,0.165c-0.493,3.454-0.329,10.854-0.329,10.854
							c3.29,0.658,8.223,0.329,11.677,0.165C80.707,105.839,80.178,94.733,80.178,94.733z"/>
					</g>
					<g>
						<g>
							<path fill="#BCC9DD" d="M65.845,70.018c-1.403-0.66-2.359-1.104-2.359-1.104c-0.047,0.03-0.115,0.058-0.181,0.087
								c-9.473,11.289-21.319,3.577-25.728-0.011c-0.056-0.024-0.118-0.05-0.158-0.076c0,0-1.1,0.511-2.672,1.252
								C37.849,73.004,53.871,86.288,65.845,70.018z"/>
						</g>
						<g>
							<path fill="#BCC9DD" d="M31.17,94.157c-4.304,0.978-10.102-0.007-12.321-0.459c-0.211,1.379-0.344,2.268-0.344,2.268
								c0.247,0.247,5.5,0.986,12.808,0.577l0.002-0.006L31.17,94.157z"/>
						</g>
						<g>
							<g>
								<path fill="#E4ECF9" d="M69.9,94.157c4.203,0.956,9.833,0.037,12.16-0.426c-0.701-4.584-2.297-14.732-2.868-15.937
									c-0.987-2.056-2.707-2.627-4.687-3.618c-2.498-1.249-6.243-3.023-8.66-4.159c-11.974,16.271-27.996,2.986-31.098,0.147
									c-2.418,1.137-5.956,2.814-8.347,4.011c-1.98,0.991-3.7,1.562-4.687,3.618c-0.57,1.202-2.16,11.307-2.863,15.905
									c2.219,0.452,8.017,1.437,12.321,0.459l0.146,2.38l-0.002,0.006c0.007,0,0.013,0,0.02-0.001
									c0.164,3.619,0.164,11.019,0.164,11.019c-0.108-0.162,9.416-0.182,15.954-0.177l-0.001,0.013c0,0,1.189-0.004,3.002-0.008
									c1.813,0.003,3.002,0.008,3.002,0.008l-0.001-0.013c6.538-0.005,16.062,0.016,15.953,0.177c0,0,0-6.568,0.138-10.354
									l-0.764,1.655l0.764-1.655c0.008-0.233,0.017-0.456,0.027-0.665c0.093,0.006,0.182,0.009,0.273,0.013l0.02-0.044
									L69.9,94.157z"/>
							</g>
							<g>
								<path fill="#BCC9DD" d="M69.9,94.157l-0.036,2.355l-0.02,0.044c7.174,0.377,12.311-0.346,12.554-0.589
									c0,0-0.129-0.876-0.338-2.235C79.733,94.194,74.103,95.113,69.9,94.157z"/>
							</g>
						</g>
						<g>
							<g>
								<path fill="#BCC9DD" d="M31.447,100.961c-0.442-2.514-0.639-5.044-0.849-7.544c-0.14-1.241-0.206-2.541-0.19-3.808
									c0.019-1.275,0.134-2.546,0.351-3.812c0.217,1.265,0.365,2.524,0.484,3.778l0.333,3.764
									c0.089,1.276,0.107,2.542,0.089,3.812C31.648,98.421,31.58,99.691,31.447,100.961z"/>
							</g>
							<g>
								<path fill="#BCC9DD" d="M29.552,90.457c-0.988-0.624-1.51-1.806-1.613-2.95c-0.088-1.147,0.218-2.386,1.064-3.189
									c-0.114,1.135-0.157,2.105-0.068,3.105C29.012,88.424,29.217,89.367,29.552,90.457z"/>
							</g>
						</g>
					</g>
					<g>
						<g>
							<path fill="#BCC9DD" d="M69.447,100.961c-0.133-1.271-0.201-2.54-0.218-3.809c-0.018-1.27,0-2.536,0.09-3.812l0.333-3.764
								c0.119-1.254,0.267-2.513,0.484-3.778c0.217,1.265,0.331,2.537,0.351,3.812c0.016,1.267-0.05,2.567-0.19,3.809
								C70.086,95.918,69.889,98.447,69.447,100.961z"/>
						</g>
						<g>
							<path fill="#BCC9DD" d="M71.342,90.457c0.335-1.089,0.54-2.033,0.617-3.034c0.089-1,0.045-1.97-0.069-3.105
								c0.846,0.803,1.153,2.042,1.065,3.189C72.852,88.65,72.331,89.833,71.342,90.457z"/>
						</g>
					</g>
				</g>
			</g>
		</g>
	</g>
</g>
</svg>
